<svg width="400" height="386" viewBox="0 0 400 386" fill="none" xmlns="http://www.w3.org/2000/svg">
<path d="M25.4023 90.5055C-10.0127 141.408 -5.60396 207.632 21.45 261.717C22.0933 263.014 22.7675 264.29 23.4314 265.565C23.8568 266.375 24.2561 267.204 24.6969 268.003C24.946 268.48 25.2259 268.947 25.4853 269.404C25.9468 270.265 26.4189 271.084 26.8961 271.924C27.7363 273.408 28.5973 274.881 29.479 276.354C29.9666 277.163 30.449 277.972 30.9521 278.781C31.9272 280.358 32.9282 281.914 33.95 283.47C34.3754 284.134 34.7902 284.798 35.2259 285.441C36.6367 287.547 38.0786 289.642 39.5671 291.706C39.604 291.76 39.6446 291.821 39.6913 291.872C39.925 292.204 40.1842 292.526 40.4227 292.858C41.709 294.631 43.0368 296.385 44.3801 298.117C44.873 298.75 45.3708 299.382 45.8687 300.015C47.0669 301.519 48.2857 303.013 49.5254 304.507C49.9869 305.067 50.4538 305.627 50.9206 306.177C52.5855 308.138 54.2815 310.088 56.0138 311.996C56.0456 312.026 56.0866 312.069 56.1173 312.1C56.1901 312.183 56.2522 312.235 56.3143 312.317C58.0052 314.164 59.7375 315.969 61.4908 317.774C62.0354 318.334 62.5904 318.894 63.1506 319.444C64.5095 320.813 65.8891 322.162 67.2844 323.5C67.8497 324.04 68.4099 324.589 68.9752 325.108C70.8372 326.861 72.72 328.583 74.6391 330.264C74.671 330.293 74.6959 330.317 74.7273 330.336C75.0539 330.627 75.3912 330.897 75.7128 331.177C77.4036 332.639 79.1256 334.092 80.8578 335.523C81.5632 336.094 82.279 336.654 82.9896 337.224C84.4055 338.355 85.837 339.476 87.2789 340.575C88.0413 341.156 88.8038 341.737 89.5714 342.318C91.1637 343.49 92.7664 344.642 94.3846 345.772C94.9759 346.198 95.5465 346.612 96.1377 347.017C96.3034 347.131 96.4543 347.245 96.62 347.359C98.1553 348.418 99.7268 349.434 101.293 350.451C101.968 350.897 102.637 351.364 103.316 351.799C105.723 353.324 108.166 354.828 110.635 356.281C111.304 356.665 111.983 357.038 112.657 357.422C114.473 358.469 116.298 359.496 118.15 360.503C119.151 361.042 120.178 361.55 121.189 362.069C122.496 362.754 123.793 363.449 125.121 364.113C125.422 364.258 125.733 364.403 126.029 364.548C126.563 364.807 127.102 365.056 127.636 365.326C129.696 366.312 131.77 367.276 133.866 368.21C134.312 368.407 134.742 368.604 135.183 368.801C137.585 369.849 140.007 370.855 142.45 371.82C143.036 372.058 143.627 372.287 144.219 372.515C146.48 373.386 148.773 374.247 151.076 375.056C151.366 375.16 151.646 375.253 151.936 375.357C154.462 376.239 157.014 377.058 159.582 377.857C160.194 378.033 160.811 378.23 161.428 378.407C164.042 379.195 166.625 380.139 169.322 380.637C340.597 411.871 390.348 277.71 390.348 277.71C348.564 332.148 274.394 346.505 204.121 330.52C201.46 329.919 198.877 329.089 196.279 328.321C195.62 328.124 194.972 327.927 194.323 327.73C191.787 326.952 189.271 326.133 186.772 325.272C186.429 325.147 186.082 325.023 185.734 324.898C183.494 324.11 181.279 323.28 179.075 322.429C178.452 322.18 177.83 321.942 177.207 321.693C174.79 320.738 172.389 319.742 170.019 318.705C169.531 318.497 169.064 318.28 168.582 318.072C166.543 317.149 164.526 316.216 162.519 315.251C161.938 314.971 161.357 314.701 160.765 314.411C159.189 313.641 157.63 312.821 156.075 312.023C155.034 311.474 153.976 310.956 152.943 310.383C151.044 309.367 149.179 308.309 147.322 307.23C146.693 306.877 146.056 306.537 145.422 306.172C142.954 304.719 140.515 303.215 138.102 301.689C137.434 301.264 136.784 300.81 136.126 300.372C134.375 299.242 132.633 298.09 130.917 296.909C130.347 296.522 129.799 296.11 129.238 295.728C127.581 294.555 125.941 293.37 124.314 292.167C123.574 291.619 122.848 291.067 122.13 290.519C120.638 289.376 119.155 288.224 117.685 287.043C117.021 286.514 116.358 285.985 115.704 285.456C113.837 283.921 111.99 282.375 110.17 280.788C109.978 280.622 109.77 280.456 109.563 280.28C107.592 278.547 105.657 276.773 103.744 274.989C103.189 274.46 102.649 273.942 102.105 273.413C100.689 272.064 99.2934 270.705 97.924 269.315C97.3742 268.765 96.8244 268.226 96.285 267.676C94.5423 265.892 92.8307 264.087 91.1553 262.251C91.0724 262.157 90.9842 262.075 90.9014 261.981C89.1275 260.041 87.3952 258.06 85.699 256.058C85.2375 255.508 84.7913 254.979 84.3349 254.44C83.0693 252.915 81.8141 251.369 80.59 249.813C80.1312 249.252 79.6723 248.679 79.2176 248.101C77.7432 246.189 76.3029 244.281 74.8922 242.344C35.8771 189.125 21.861 115.725 53.0441 55.445" fill="#0868AC" fill-opacity="0.98"/>
<path d="M135.335 47.6206C109.723 84.4773 111.113 133.815 131.092 172.795C134.443 179.33 138.209 185.668 142.42 191.705C146.258 197.203 150.511 203.749 155.605 208.168C157.451 210.201 159.381 212.183 161.351 214.133C161.849 214.641 162.357 215.129 162.866 215.627C164.78 217.483 166.725 219.309 168.737 221.083C168.82 221.145 168.893 221.228 168.976 221.291C168.997 221.312 169.018 221.321 169.032 221.344C171.257 223.294 173.555 225.172 175.889 227.018C176.408 227.412 176.921 227.827 177.445 228.232C179.785 230.026 182.171 231.79 184.618 233.47C184.691 233.523 184.753 233.574 184.826 233.626C185.905 234.373 187.005 235.068 188.099 235.783C188.623 236.126 189.121 236.489 189.65 236.81C191.398 237.931 193.166 239.02 194.966 240.068C195.22 240.223 195.469 240.358 195.718 240.503C197.269 241.395 198.84 242.277 200.417 243.128C200.967 243.439 201.527 243.708 202.088 243.999C203.177 244.569 204.266 245.15 205.376 245.7C205.542 245.783 205.713 245.856 205.874 245.929C208.13 247.039 210.407 248.107 212.73 249.124C213.228 249.342 213.742 249.538 214.245 249.746C216.102 250.535 217.979 251.302 219.867 252.028C220.666 252.329 221.475 252.62 222.274 252.91C223.985 253.543 225.702 254.124 227.435 254.705C228.218 254.954 228.985 255.213 229.769 255.452C232.232 256.219 234.665 257.184 237.232 257.609C369.472 279.518 400.001 177.703 400.001 177.703C372.481 217.34 319.186 236.25 262.314 221.489C259.788 220.825 257.298 220.099 254.824 219.321C254.067 219.093 253.325 218.844 252.573 218.595C250.815 218.024 249.067 217.422 247.335 216.79C246.541 216.499 245.748 216.209 244.97 215.908C243.071 215.182 241.194 214.425 239.332 213.636C238.823 213.418 238.31 213.221 237.812 212.993C235.478 211.976 233.18 210.908 230.914 209.788C229.747 209.217 228.6 208.615 227.454 208.024C226.79 207.682 226.121 207.34 225.457 206.997C223.984 206.198 222.522 205.369 221.079 204.528C220.737 204.331 220.379 204.144 220.032 203.937C218.242 202.889 216.479 201.811 214.731 200.701C214.191 200.358 213.673 199.985 213.133 199.632C211.982 198.885 210.83 198.128 209.7 197.36C207.262 195.68 204.892 193.916 202.553 192.132C202.013 191.707 201.474 191.292 200.945 190.866C176.05 171.211 156.318 144.353 146.936 113.897C137.104 82.31 139.224 46.8525 156.258 18.0786" fill="#0868AC" fill-opacity="0.98"/>
<path d="M227.798 15.5794C212.699 37.7993 211.216 65.3941 221.693 89.936C232.741 115.984 255.381 136.42 281.803 146.107C282.892 146.512 283.981 146.875 285.086 147.248C285.568 147.394 286.045 147.56 286.533 147.704C288.089 148.192 289.635 148.763 291.243 149.063C364.261 163.171 384.065 111.594 389.338 104.003C371.989 128.982 342.833 134.978 307.061 126.296C304.236 125.607 301.13 124.588 298.406 123.623C294.914 122.378 291.472 120.959 288.128 119.353C281.776 116.302 275.721 112.597 270.108 108.357C238.097 84.0697 218.212 37.7349 239.099 0" fill="#0868AC" fill-opacity="0.98"/>
</svg>
